<?xml version="1.0" encoding="utf-8"?>
<!-- Generator: Adobe Illustrator 23.0.6, SVG Export Plug-In . SVG Version: 6.00 Build 0)  -->
<svg version="1.1" id="Layer_1" xmlns="http://www.w3.org/2000/svg" xmlns:xlink="http://www.w3.org/1999/xlink" x="0px" y="0px"
	 viewBox="0 0 400 400" style="enable-background:new 0 0 400 400;" xml:space="preserve">
<style type="text/css">
	.st0{fill:#FEBA06;}
	.st1{fill:#A3D008;}
	.st2{fill:#F8562C;}
	.st3{fill:#39BFCE;}
</style>
<g>
	<path class="st0" d="M257.66,179.41c-11.66,0-21.11,9.45-21.11,21.11c0,11.66,9.45,21.11,21.11,21.11h69.81l-16.06-42.22H257.66z"
		/>
	<path class="st1" d="M96.1,221.63h102.46c11.66,0,21.11-9.45,21.11-21.11c0-11.66-9.45-21.11-21.11-21.11H96.1
		c-11.66,0-21.11,9.45-21.11,21.11C74.99,212.18,84.44,221.63,96.1,221.63z"/>
	<path class="st2" d="M338.24,252.43H119.91c-5.51-6.56-13.76-10.74-22.99-10.74c-16.58,0-30.01,13.44-30.01,30.01
		c0,16.58,13.44,30.01,30.01,30.01c9.23,0,17.49-4.18,22.99-10.74H352.9L338.24,252.43z"/>
	<path class="st3" d="M285.74,109.45H120.35c-5.5-6.88-13.95-11.3-23.44-11.3c-16.58,0-30.01,13.44-30.01,30.01
		c0,16.57,13.44,30.01,30.01,30.01c8.96,0,16.99-3.95,22.49-10.18H300.4L285.74,109.45z"/>
</g>
</svg>
