<?xml version="1.0" encoding="UTF-8" standalone="no"?>
<svg
   height="326.05829"
   width="351.00735"
   version="1.1"
   viewBox="0 0 351.01344 326.05855"
   id="svg77"
   sodipodi:docname="tb.svg"
   inkscape:version="1.2.2 (b0a8486541, 2022-12-01)"
   xmlns:inkscape="http://www.inkscape.org/namespaces/inkscape"
   xmlns:sodipodi="http://sodipodi.sourceforge.net/DTD/sodipodi-0.dtd"
   xmlns="http://www.w3.org/2000/svg"
   xmlns:svg="http://www.w3.org/2000/svg">
  <defs
     id="defs81" />
  <sodipodi:namedview
     id="namedview79"
     pagecolor="#ffffff"
     bordercolor="#000000"
     borderopacity="0.25"
     inkscape:showpageshadow="2"
     inkscape:pageopacity="0.0"
     inkscape:pagecheckerboard="0"
     inkscape:deskcolor="#d1d1d1"
     showgrid="false"
     inkscape:zoom="1.1623688"
     inkscape:cx="308.42191"
     inkscape:cy="161.30853"
     inkscape:window-width="1916"
     inkscape:window-height="1052"
     inkscape:window-x="1920"
     inkscape:window-y="24"
     inkscape:window-maximized="1"
     inkscape:current-layer="g71" />
  <g
     transform="translate(0,-730.63935)"
     id="g75">
    <g
       stroke-width="28"
       id="g39">
      <g
         transform="matrix(-0.66287,0.69913,-0.66371,-0.70001,863.46,1410.6)"
         id="g29">
        <g
           transform="translate(2.5254,3.0305)"
           id="g25" />
        <g
           transform="translate(41.25,-30.543)"
           stroke-width="28"
           id="g27" />
      </g>
      <g
         transform="matrix(0.57657,0.52719,-0.57729,0.52786,584.63,346.6)"
         id="g31" />
      <g
         transform="matrix(0.66287,-0.69913,0.66371,0.70001,-543.46,380.47)"
         id="g37">
        <g
           transform="translate(2.5254,3.0305)"
           id="g33" />
        <g
           transform="translate(41.25,-30.543)"
           stroke-width="28"
           id="g35" />
      </g>
    </g>
    <g
       transform="matrix(1.0591482,0,0,1,-6.7355731e-5,732.36)"
       fill="#305680"
       id="g73">
      <g
         fill="#000000"
         id="g71">
        <g
           transform="translate(-6.1238e-5,-732.36)"
           id="g47"
           style="fill:#697a8d;fill-opacity:1">
          <path
             style="color:#000000;text-indent:0;text-decoration-line:none;text-decoration-style:solid;text-decoration-color:#000000;text-transform:none;white-space:normal;isolation:auto;mix-blend-mode:normal;solid-color:#000000;color-rendering:auto;image-rendering:auto;shape-rendering:auto;fill:#697a8d;fill-opacity:1"
             d="m 151.13,732.36 c -28.363,0 -54.915,7.9153 -77.613,21.537 -6.4723,-5.2623 -14.605,-8.1915 -23.067,-8.1937 a 8.7661,8.7661 0 0 0 -0.0035,0 c -20.154,7.3e-4 -36.679,16.528 -36.678,36.682 a 8.7661,8.7661 0 0 0 0,0.0106 c 0.0099,8.4147 2.9267,16.483 8.1033,22.927 -13.83,22.83 -21.87,49.58 -21.87,78.17 a 8.7661,8.7661 0 1 0 17.531,0 c 0,-24.702 6.7193,-47.748 18.378,-67.574 4.5663,1.9846 9.4727,3.1496 14.519,3.1573 a 8.7661,8.7661 0 0 0 0.01241,0 c 20.155,6.2e-4 36.683,-16.527 36.682,-36.682 a 8.7661,8.7661 0 0 0 0,-0.004 c -0.0016,-4.9994 -1.1387,-9.8628 -3.0828,-14.397 19.717,-11.484 42.585,-18.095 67.085,-18.095 a 8.7661,8.7661 0 1 0 0,-17.531 z M 50.44,763.24 c 5.9129,0.002 11.191,2.5121 14.836,7.0769 a 8.7661,8.7661 0 0 0 0.1826,0.21451 c 2.6715,3.3798 4.1326,7.5531 4.1341,11.863 -0.0015,10.677 -8.468,19.144 -19.144,19.148 -4.37,-0.008 -8.6011,-1.5088 -12,-4.2546 a 8.7661,8.7661 0 0 0 -0.01241,-0.009 c -4.514,-3.6331 -7.1358,-9.0979 -7.1442,-14.893 0.0025,-10.677 8.4701,-19.144 19.148,-19.146 z"
             id="path41" />
          <path
             style="color:#000000;text-indent:0;text-decoration-line:none;text-decoration-style:solid;text-decoration-color:#000000;text-transform:none;white-space:normal;isolation:auto;mix-blend-mode:normal;solid-color:#000000;color-rendering:auto;image-rendering:auto;shape-rendering:auto;fill:#697a8d;fill-opacity:1"
             d="m 66.992,835.19 c -1.492,1.5583 -2.3663,3.7103 -2.2576,6.0713 0.0962,2.0447 0.91322,4.0204 2.3372,5.5177 6.8051,6.8559 20.223,20.223 20.223,20.223 l 11.844,-11.83 c 0,0 -12.973,-12.961 -20.176,-20.171 -1.604,-1.6325 -3.7498,-2.3141 -6.012,-2.3243 -2.3583,-0.0112 -4.4673,0.95389 -5.9592,2.5122 z M 99.139,855.173 62.5,891.812 c -3.9751,3.976 -3.9751,10.421 0,14.397 l 18.156,18.156 31.753,31.753 30.478,30.478 c 3.9758,3.9759 10.422,3.9763 14.398,0 l 24.791,-24.791 37.914,-37.914 36.639,-36.639 c 3.9754,-3.9764 3.975,-10.422 -6.7e-4,-14.398 l -18.63,-18.63 -31.75,-31.76 -30.01,-30 c -3.976,-3.9751 -10.421,-3.9751 -14.397,0 l -24.79,24.79 z m 37.911,-37.91 c 0,0 -12.973,-12.961 -20.176,-20.171 -1.604,-1.6325 -3.7498,-2.3141 -6.012,-2.3243 -4.7166,-0.0226 -8.4341,3.8616 -8.2169,8.5834 0.0962,2.0447 0.91322,4.0204 2.3372,5.5177 6.8051,6.8559 20.223,20.223 20.223,20.223 z m 69.193,5.2132 c 0,0 12.961,-12.973 20.171,-20.176 1.6325,-1.604 2.3141,-3.7498 2.3243,-6.012 0.0225,-4.7166 -3.8616,-8.4341 -8.5834,-8.2169 -2.0447,0.0962 -4.0204,0.91322 -5.5177,2.3372 -6.8559,6.8051 -20.223,20.223 -20.223,20.223 z m 31.753,31.753 c 0,0 12.961,-12.973 20.171,-20.176 1.6325,-1.604 2.314,-3.7498 2.3243,-6.012 0.0225,-4.7166 -3.8616,-8.4341 -8.5834,-8.2169 -2.0447,0.0962 -4.0204,0.91323 -5.5177,2.3372 -6.8559,6.8051 -20.223,20.223 -20.223,20.223 z m -18.009,69.667 c 0,0 12.973,12.961 20.178,20.169 1.604,1.6324 3.7498,2.314 6.012,2.3243 4.7166,0.0225 8.4342,-3.8615 8.2169,-8.5834 l -0.002,0.002 c -0.0962,-2.0447 -0.91415,-4.0214 -2.3382,-5.5186 -6.8051,-6.8559 -20.222,-20.222 -20.222,-20.222 l -11.844,11.83 z m -37.914,37.914 c 0,0 12.973,12.961 20.178,20.169 1.604,1.6324 3.7498,2.314 6.012,2.3242 4.7166,0.023 8.4342,-3.8615 8.2169,-8.5834 h -0.002 c -0.0962,-2.0447 -0.91323,-4.0205 -2.3372,-5.5177 -6.8051,-6.8559 -20.223,-20.223 -20.223,-20.223 l -11.844,11.83 z m -69.667,-5.6871 c 0,0 -12.961,12.973 -20.169,20.178 -1.6324,1.604 -2.314,3.7498 -2.3243,6.012 -0.02251,4.7166 3.8615,8.4342 8.5834,8.2169 h -0.0019 c 2.0447,-0.096 4.0204,-0.9132 5.5177,-2.3373 6.8561,-6.8048 20.223,-20.223 20.223,-20.223 z m -31.743,-31.74 c 0,0 -12.961,12.973 -20.169,20.178 -1.6324,1.604 -2.314,3.7498 -2.3243,6.012 -0.02251,4.7167 3.8615,8.4342 8.5834,8.2169 h -0.0019 c 2.0447,-0.0962 4.0204,-0.91322 5.5177,-2.3372 6.8561,-6.8047 20.223,-20.223 20.223,-20.223 z m 87.237,-90.554 c 1.6794,-1.7064 3.9669,-2.6599 6.2971,-2.626 1.6628,0.0237 3.253,0.55012 4.5625,1.5097 l 16.499,12.1 c 3.2009,2.297 4.1445,6.6589 2.2308,10.312 -1.9137,3.6528 -6.1234,5.5243 -9.9506,4.4227 l 6.124,23.948 c 1.1128,4.3517 -1.564,8.9677 -5.9833,10.317 l -44.642,13.631 8.2456,31.883 c 1.1728,4.3696 -1.5017,9.0445 -5.9546,10.407 -4.4529,1.3625 -8.9756,-1.1106 -10.068,-5.5047 l -10.282,-39.769 c -1.1265,-4.3556 1.5493,-8.9847 5.9759,-10.338 l 44.661,-13.637 -4.1219,-16.118 c -2.7634,3.0643 -7.2335,3.8084 -10.586,1.7615 -3.3531,-2.0469 -4.6144,-6.2896 -2.9861,-10.047 l 8.1169,-19.454 c 0.43322,-1.0376 1.0673,-1.9888 1.8624,-2.7973 z"
             fill-rule="evenodd"
             id="path43" />
          <path
             style="color:#000000;text-indent:0;text-decoration-line:none;text-decoration-style:solid;text-decoration-color:#000000;text-transform:none;white-space:normal;isolation:auto;mix-blend-mode:normal;solid-color:#000000;color-rendering:auto;image-rendering:auto;shape-rendering:auto;fill:#697a8d;fill-opacity:1"
             d="m 168.87,1052.4 c 28.363,0 54.915,-7.9155 77.614,-21.538 6.4724,5.2624 14.605,8.1917 23.067,8.1939 a 8.7662,8.7662 0 0 0 0.004,0 c 20.155,-7e-4 36.68,-16.528 36.679,-36.682 a 8.7662,8.7662 0 0 0 0,-0.011 c -0.01,-8.4149 -2.9267,-16.484 -8.1034,-22.927 13.825,-22.82 21.866,-49.572 21.866,-78.162 a 8.7662,8.7662 0 1 0 -17.531,0 c 0,24.703 -6.7194,47.749 -18.378,67.575 -4.5664,-1.9846 -9.4728,-3.1496 -14.519,-3.1573 a 8.7662,8.7662 0 0 0 -0.0124,0 c -20.155,-6.2e-4 -36.683,16.527 -36.682,36.682 0.002,4.9994 1.1387,9.8628 3.0829,14.397 -19.717,11.484 -42.586,18.095 -67.086,18.095 a 8.7662,8.7662 0 1 0 0,17.531 z m 100.69,-30.875 c -5.913,0 -11.191,-2.5122 -14.836,-7.0769 a 8.7662,8.7662 0 0 0 -0.18261,-0.2146 c -2.6715,-3.3799 -4.1327,-7.5531 -4.1341,-11.863 0.002,-10.677 8.4681,-19.144 19.144,-19.148 4.37,0.008 8.6012,1.5088 12,4.2547 a 8.7662,8.7662 0 0 0 0.0124,0.009 c 4.5141,3.6332 7.1359,9.098 7.1443,14.893 -0.003,10.677 -8.4702,19.145 -19.148,19.146 z"
             id="path45" />
        </g>
      </g>
    </g>
  </g>
  <rect
     style="fill:none;stroke-width:1.00002"
     id="rect247"
     width="351.01346"
     height="326.06393"
     x="0"
     y="-0.0026457508" />
</svg>
